<svg xmlns="http://www.w3.org/2000/svg" width="512" height="512" viewBox="0 0 32 32" shape-rendering="crispEdges">
  <rect x="1" y="1" width="30" height="30" rx="5" fill="#21394f"/>
  <path d="M6 1h20v2H6zM2 6h2v20H2zM28 6h2v20h-2zM6 29h20v2H6z" fill="#71d8c2"/>
  <rect x="7" y="26" width="18" height="2" fill="#142b43"/>
  <rect x="9" y="20" width="14" height="7" fill="#142b43"/>
  <rect x="10" y="20" width="12" height="6" fill="#69c9b7"/>
  <rect x="14" y="21" width="4" height="5" fill="#f3ebd5"/>
  <rect x="11" y="19" width="4" height="3" fill="#f5dbbd"/>
  <rect x="18" y="19" width="4" height="3" fill="#f5dbbd"/>
  <path d="M8 10h2V8h2V6h4V4h3v2h3v2h2v2h1v10H8z" fill="#142b43"/>
  <rect x="10" y="10" width="14" height="10" fill="#f4ddbd"/>
  <path d="M9 10h15v3h-3v-1h-4v2h-7v-2H9z" fill="#405878"/>
  <rect x="17" y="4" width="2" height="4" fill="#405878"/>
  <rect x="19" y="5" width="2" height="2" fill="#405878"/>
  <rect x="11" y="14" width="2" height="3" fill="#203b53"/>
  <rect x="19" y="14" width="2" height="3" fill="#203b53"/>
  <rect x="10" y="18" width="3" height="1" fill="#f49f9c"/>
  <rect x="20" y="18" width="3" height="1" fill="#f49f9c"/>
  <rect x="15" y="18" width="3" height="1" fill="#a75367"/>
  <rect x="22" y="20" width="5" height="3" fill="#142b43"/>
  <rect x="23" y="20" width="4" height="2" fill="#f4ddbd"/>
  <rect x="26" y="18" width="4" height="3" fill="#ffcc67"/>
  <rect x="27" y="17" width="2" height="1" fill="#fff2bd"/>
  <rect x="28" y="13" width="2" height="2" fill="#80efd3"/>
  <rect x="26" y="11" width="1" height="1" fill="#80efd3"/>
</svg>
